<svg width="420" height="420" viewBox="0 0 420 420" fill="none" xmlns="http://www.w3.org/2000/svg">
  <rect width="420" height="420" rx="64" fill="#140a27"/>
  <defs>
    <radialGradient id="glow" cx="0" cy="0" r="1" gradientUnits="userSpaceOnUse" gradientTransform="translate(210 420) rotate(-90) scale(360)">
      <stop offset="0" stop-color="#ff6f3c" stop-opacity="0.95"/>
      <stop offset="0.45" stop-color="#ffc857" stop-opacity="0.8"/>
      <stop offset="0.78" stop-color="#2bd3a3" stop-opacity="0.6"/>
      <stop offset="1" stop-color="#140a27" stop-opacity="0"/>
    </radialGradient>
    <linearGradient id="stripes" x1="70" y1="40" x2="350" y2="360" gradientUnits="userSpaceOnUse">
      <stop stop-color="#fff7e6" stop-opacity="0.8"/>
      <stop offset="0.5" stop-color="#f94f9e" stop-opacity="0.6"/>
      <stop offset="1" stop-color="#2bd3a3" stop-opacity="0.6"/>
    </linearGradient>
  </defs>
  <circle cx="210" cy="320" r="260" fill="url(#glow)"/>
  <path d="M40 320C80 260 130 220 210 220C290 220 340 260 380 320L340 360C310 314 270 292 210 292C150 292 110 314 80 360L40 320Z" fill="#fff7e6" fill-opacity="0.25"/>
  <path d="M40 260C80 212 130 180 210 180C290 180 340 212 380 260L360 300C324 264 276 240 210 240C144 240 96 264 60 300L40 260Z" fill="url(#stripes)"/>
  <circle cx="210" cy="150" r="68" fill="#fff7e6"/>
  <circle cx="210" cy="150" r="48" fill="#ff6f3c"/>
  <circle cx="210" cy="150" r="26" fill="#140a27"/>
</svg>
