<svg width="800" height="800" viewBox="0 0 800 800" fill="none" xmlns="http://www.w3.org/2000/svg">
  <rect width="800" height="800" fill="none" />
  <g opacity="0.55">
    <path d="M0 160C120 140 190 40 320 60C450 80 470 200 560 240C650 280 760 240 800 200V0H0V160Z" fill="url(#paint0_linear)"/>
    <path d="M0 640C90 600 170 520 300 520C430 520 470 640 600 660C690 674 750 638 800 604V800H0V640Z" fill="url(#paint1_linear)"/>
    <circle cx="120" cy="640" r="180" fill="url(#paint2_radial)"/>
    <circle cx="720" cy="140" r="180" fill="url(#paint3_radial)"/>
    <path d="M120 280C210 224 320 220 420 252C520 284 600 360 680 420C600 468 520 532 420 548C320 564 210 536 120 480C80 456 66 356 120 280Z" fill="url(#paint4_linear)"/>
  </g>
  <defs>
    <linearGradient id="paint0_linear" x1="0" y1="0" x2="800" y2="240" gradientUnits="userSpaceOnUse">
      <stop stop-color="#ff6f3c" stop-opacity="0.55"/>
      <stop offset="0.45" stop-color="#f94f9e" stop-opacity="0.45"/>
      <stop offset="1" stop-color="#2bd3a3" stop-opacity="0.3"/>
    </linearGradient>
    <linearGradient id="paint1_linear" x1="0" y1="520" x2="800" y2="800" gradientUnits="userSpaceOnUse">
      <stop stop-color="#ffc857" stop-opacity="0.4"/>
      <stop offset="0.55" stop-color="#ff6f3c" stop-opacity="0.4"/>
      <stop offset="1" stop-color="#f94f9e" stop-opacity="0.35"/>
    </linearGradient>
    <radialGradient id="paint2_radial" cx="0" cy="0" r="1" gradientUnits="userSpaceOnUse" gradientTransform="translate(120 640) rotate(90) scale(180)">
      <stop stop-color="#2bd3a3" stop-opacity="0.42"/>
      <stop offset="1" stop-color="#2bd3a3" stop-opacity="0"/>
    </radialGradient>
    <radialGradient id="paint3_radial" cx="0" cy="0" r="1" gradientUnits="userSpaceOnUse" gradientTransform="translate(720 140) rotate(90) scale(180)">
      <stop stop-color="#ffc857" stop-opacity="0.45"/>
      <stop offset="1" stop-color="#ffc857" stop-opacity="0"/>
    </radialGradient>
    <linearGradient id="paint4_linear" x1="120" y1="280" x2="680" y2="548" gradientUnits="userSpaceOnUse">
      <stop stop-color="#ff6f3c" stop-opacity="0.35"/>
      <stop offset="0.48" stop-color="#ffc857" stop-opacity="0.28"/>
      <stop offset="1" stop-color="#2bd3a3" stop-opacity="0.25"/>
    </linearGradient>
  </defs>
</svg>
