<svg width="420" height="420" viewBox="0 0 420 420" fill="none" xmlns="http://www.w3.org/2000/svg">
  <rect width="420" height="420" rx="40" fill="#1e1038"/>
  <g opacity="0.9">
    <path d="M40 40H200L160 200H0L40 40Z" fill="#ff6f3c"/>
    <path d="M200 40H380L340 200H160L200 40Z" fill="#ffc857"/>
    <path d="M40 200H200L160 360H0L40 200Z" fill="#2bd3a3"/>
    <path d="M200 200H380L340 360H160L200 200Z" fill="#f94f9e"/>
    <circle cx="110" cy="110" r="44" fill="#fff7e6" fill-opacity="0.8"/>
    <circle cx="310" cy="110" r="44" fill="#140a27" fill-opacity="0.6"/>
    <circle cx="110" cy="310" r="44" fill="#140a27" fill-opacity="0.6"/>
    <circle cx="310" cy="310" r="44" fill="#fff7e6" fill-opacity="0.8"/>
  </g>
  <rect x="140" y="140" width="140" height="140" rx="32" fill="#1e1038"/>
  <path d="M170 170H250L238 250H158L170 170Z" fill="#ff6f3c"/>
  <circle cx="210" cy="210" r="28" fill="#fff7e6"/>
</svg>
